<svg xmlns="http://www.w3.org/2000/svg" xmlns:xlink="http://www.w3.org/1999/xlink" width="316.44" height="120.33" viewBox="0 0 316.44 120.33"><defs><style>.cls-1{fill:none;}.cls-2{clip-path:url(#clip-path);}.cls-3{fill:#00a0ff;}.cls-4{fill:#ff6400;}.cls-5{fill:#fff;}</style><clipPath id="clip-path" transform="translate(0 0)"><rect class="cls-1" width="316.44" height="120.33"/></clipPath></defs><g id="レイヤー_2" data-name="レイヤー 2"><g id="レイヤー_1-2" data-name="レイヤー 1"><g class="cls-2"><path d="M291.07,16.35l-3.27-2.57-3.6-2.49a69.63,69.63,0,0,0-87.41,9.25l-7.15,7.16,38.22,38.23.14.14,7.16-7.16a15.82,15.82,0,0,1,12.24-4.62,15.54,15.54,0,0,1,9,3.6,15.84,15.84,0,0,1,5.82,11.76,15.51,15.51,0,0,1-3.66,10.54l-2.7,3.24,39.42,36.76.15.14,3-3.36a69.76,69.76,0,0,0-7.34-100.62" transform="translate(0 0)"/><path class="cls-3" d="M285.15,17.36c-.55-.41-1.11-.81-1.67-1.2L258.67,54.07c.17.13.35.25.51.38a20.3,20.3,0,0,1,7.44,15.07,20,20,0,0,1-4.69,13.53L293,112a2.85,2.85,0,0,0,4.13-.27A65.12,65.12,0,0,0,312,70.21a65.82,65.82,0,0,0-26.83-52.85" transform="translate(0 0)"/><path class="cls-4" d="M248.32,4.48q-1,0-2,0a65.24,65.24,0,0,0-46.4,19.24l-4,4L228,59.77l4-4a20.14,20.14,0,0,1,14.33-5.95c.45,0,.89,0,1.34,0a19.88,19.88,0,0,1,11,4.22l24.81-37.91A64.78,64.78,0,0,0,248.32,4.48" transform="translate(0 0)"/><path d="M246.34,22.93A47,47,0,0,0,214.7,35.19a35.39,35.39,0,0,0-4.08-3.85,40.79,40.79,0,0,0-49.61,0,34.5,34.5,0,0,0-4.07,3.85,47,47,0,0,0-63-.28,33.26,33.26,0,0,0-40.92-8.22A42,42,0,0,0,35.6,22.93c-13.38,0-25.84,6.31-32.52,16.46l-.44.66-.36.69A18.81,18.81,0,0,0,0,49.48,18,18,0,0,0,5.31,62.31a18.73,18.73,0,0,0,1.4,1.26v51.8h95V110.7a47,47,0,0,0,47.21,0v4.68h73.84V110.7a47.06,47.06,0,1,0,23.6-87.77" transform="translate(0 0)"/><path class="cls-4" d="M246.34,113a43,43,0,1,1,43-43,43,43,0,0,1-43,43" transform="translate(0 0)"/><path class="cls-3" d="M246.34,109.06A39.07,39.07,0,1,1,285.41,70a39.1,39.1,0,0,1-39.07,39.06" transform="translate(0 0)"/><path class="cls-5" d="M246.34,38.72A31.28,31.28,0,1,0,277.61,70a31.28,31.28,0,0,0-31.27-31.28m10.38,44.92A13.65,13.65,0,1,1,270.37,70a13.64,13.64,0,0,1-13.65,13.64" transform="translate(0 0)"/><path class="cls-3" d="M256.72,83.64A13.65,13.65,0,1,1,270.37,70a13.64,13.64,0,0,1-13.65,13.64" transform="translate(0 0)"/><path class="cls-4" d="M256.72,79.74A9.75,9.75,0,1,1,266.47,70a9.75,9.75,0,0,1-9.75,9.74" transform="translate(0 0)"/><path class="cls-3" d="M153,111.27V55.63a27.14,27.14,0,0,1,10.57-21.09,36.7,36.7,0,0,1,44.49,0,27.12,27.12,0,0,1,10.58,21.09v55.64Z" transform="translate(0 0)"/><path class="cls-4" d="M156.89,107.37V55.63a23.26,23.26,0,0,1,9.12-18,32.79,32.79,0,0,1,39.62,0,23.24,23.24,0,0,1,9.11,18v51.74Z" transform="translate(0 0)"/><path class="cls-5" d="M185.82,38.72c-11.67,0-21.13,7.57-21.13,16.91V99.58h21.13V58.16a2.53,2.53,0,0,1,2.53-2.53H190a8.5,8.5,0,0,1,8.5,8.49V99.58H207V55.63c0-9.34-9.46-16.91-21.13-16.91" transform="translate(0 0)"/><path class="cls-4" d="M125.29,113a43,43,0,1,1,43-43,43,43,0,0,1-43,43" transform="translate(0 0)"/><path class="cls-3" d="M125.29,109.06A39.07,39.07,0,1,1,164.36,70a39.1,39.1,0,0,1-39.07,39.06" transform="translate(0 0)"/><path class="cls-5" d="M125.29,38.72A31.28,31.28,0,1,0,156.57,70a31.28,31.28,0,0,0-31.28-31.28m10.38,44.92A13.65,13.65,0,1,1,149.32,70a13.64,13.64,0,0,1-13.65,13.64" transform="translate(0 0)"/><path class="cls-3" d="M135.67,83.64A13.65,13.65,0,1,1,149.32,70a13.64,13.64,0,0,1-13.65,13.64" transform="translate(0 0)"/><path class="cls-4" d="M135.67,79.74A9.75,9.75,0,1,1,145.42,70a9.75,9.75,0,0,1-9.75,9.74" transform="translate(0 0)"/><path class="cls-3" d="M10.82,111.27V61.46a13.81,13.81,0,0,1-2.6-2.05A14,14,0,0,1,4.1,49.48a14.77,14.77,0,0,1,1.81-6.84l.27-.51.32-.49C12.43,32.63,23.58,27,35.6,27a37.26,37.26,0,0,1,17.58,4.3A28.89,28.89,0,0,1,68.43,27,29.19,29.19,0,0,1,97.59,56.19v55.08Z" transform="translate(0 0)"/><path class="cls-4" d="M14.72,107.37,14.7,59A10.15,10.15,0,0,1,8,49.48a11,11,0,0,1,1.36-5l.18-.34.22-.33C15,35.85,24.88,30.93,35.6,30.93a33.31,33.31,0,0,1,17.74,5A25.26,25.26,0,0,1,93.69,56.19v51.18Z" transform="translate(0 0)"/><path class="cls-5" d="M68.43,38.72a17.44,17.44,0,0,0-14.59,7.87c-3.91-4.74-10.61-7.87-18.24-7.87-8.39,0-15.67,3.79-19.33,9.35a4.06,4.06,0,0,0-.48,1.41,2.31,2.31,0,0,0,.69,1.66,2.35,2.35,0,0,0,1.65.69,4.37,4.37,0,0,1,4.37,4.36V99.58H43.64V57.32a1.69,1.69,0,0,1,1.69-1.69,6.76,6.76,0,0,1,6.76,6.76V99.58H69V57.32a1.68,1.68,0,0,1,1.69-1.69,6.76,6.76,0,0,1,6.76,6.76V99.58H85.9V56.19A17.47,17.47,0,0,0,68.43,38.72" transform="translate(0 0)"/><polygon class="cls-5" points="206.18 21.83 208.79 20.07 211.31 22.48 211.77 22.17 210.52 18.9 212.47 17.59 215.01 19.98 215.47 19.67 214.19 16.43 216.77 14.69 221.43 26.3 219.37 27.69 216.36 24.98 215.9 25.29 217.31 29.08 215.22 30.49 206.18 21.83"/><path class="cls-5" d="M225.92,24.23c-1.62,0-3.24-1.41-4.21-3.69-1.14-2.67-.71-5.06,1-5.81a2.39,2.39,0,0,1,1-.21c1.53,0,3.05,1.47,4.2,4l-3.17,1.36.21.28a2,2,0,0,0,1.57,1,1.69,1.69,0,0,0,.65-.14,2.63,2.63,0,0,0,1.23-1.24l.51,1.19A3.53,3.53,0,0,1,227,24a2.71,2.71,0,0,1-1.08.22m-1.38-7.63a.72.72,0,0,0-.29.06c-.38.16-.73.61-.27,1.81l.11.28,1.68-.72-.11-.26c-.24-.54-.57-1.17-1.12-1.17" transform="translate(0 0)"/><path class="cls-5" d="M234.08,21.56c-1.75,0-3.36-1.76-4-4.37a6.6,6.6,0,0,1,.06-3.71,2.76,2.76,0,0,1,1.91-1.85,2.62,2.62,0,0,1,.61-.08c1.65,0,3.09,1.76,3.87,4.71l-3.35.81.16.32A1.85,1.85,0,0,0,235,18.61a2,2,0,0,0,.41-.05,2.66,2.66,0,0,0,1.41-1l.31,1.26a3.51,3.51,0,0,1-2.39,2.68,2.89,2.89,0,0,1-.65.08m-.68-7.8-.19,0c-.57.14-.75.72-.55,1.73l.06.29,1.77-.43-.06-.28c-.14-.57-.4-1.34-1-1.34" transform="translate(0 0)"/><path class="cls-5" d="M238.83,8l2.86-.18.4,6.4.47-.88a4.62,4.62,0,0,0,.81-3.05l2.87-.19a6.69,6.69,0,0,1-.32,2.61,5.93,5.93,0,0,1-.65,1.3l-.1.17.11.15a8.43,8.43,0,0,1,1.6,5l0,.39-2.85.18a13.14,13.14,0,0,0-.69-3.61,1.94,1.94,0,0,0-.73-1l-.49-.36.32,5.07-2.86.18Z" transform="translate(0 0)"/><path class="cls-5" d="M251.9,20.4h-.28a3,3,0,0,1-2.34-1.67,7,7,0,0,1-.62-3.92c.27-2.71,1.69-4.6,3.46-4.6h.26a2.67,2.67,0,0,1,2.18,1.72,8.64,8.64,0,0,1,.49,4.14l-3.43-.35,0,.35c.13,1.07.68,1.7,1.55,1.79h.19a2.76,2.76,0,0,0,1.48-.5l-.13,1.29a3.57,3.57,0,0,1-2.86,1.74m.77-7.77c-.54,0-.88.49-1,1.46l0,.29,1.81.18,0-.28a2.68,2.68,0,0,0-.06-1.11.72.72,0,0,0-.64-.54Z" transform="translate(0 0)"/><path class="cls-5" d="M260.84,22l1.56-5.51c.23-.8.4-1.38-.3-1.57a.77.77,0,0,0-.25,0,.87.87,0,0,0-.53.21l-.07.06-1.84,6.45-2.76-.79,2.65-9.3,2.69.77-.33,1.16.61-.35a2.81,2.81,0,0,1,1.41-.48,1.93,1.93,0,0,1,.52.08,2,2,0,0,1,1.43,1.75,5.16,5.16,0,0,1-.3,2.23l-1.74,6.12Z" transform="translate(0 0)"/><path class="cls-5" d="M269.19,25.34l.42-.86-.59.15a4.09,4.09,0,0,1-.91.13,1.36,1.36,0,0,1-.66-.15,2.21,2.21,0,0,1-1-2,7.35,7.35,0,0,1,.85-3.5c1-2.09,2.59-3.45,3.94-3.45a1.85,1.85,0,0,1,.81.18,2.44,2.44,0,0,1,.95.92l.27.43,1.39-2.81,2.57,1.27-5.44,11ZM271,19.17a1.49,1.49,0,0,0-1.2,1c-.36.73-.27,1.36.24,1.62a.9.9,0,0,0,.36.08,1.52,1.52,0,0,0,.43-.08l.12,0,.89-1.81,0-.12a.84.84,0,0,0-.45-.52.73.73,0,0,0-.35-.09" transform="translate(0 0)"/><path class="cls-5" d="M282.75,35.44l1.19-1.74-2-2-1.72,1.21-2.44-2.37,10.6-6.76,3.43,3.35-6.6,10.66Zm.58-4.79L285,32.28l2.76-4-.39-.39Z" transform="translate(0 0)"/><path class="cls-5" d="M288.79,43.2l4.78-3.14c.61-.4.88-.61.93-.9a.64.64,0,0,0-.12-.5.8.8,0,0,0-.71-.37h-.09L288,42l-1.58-2.39,8.08-5.31L296,36.6l-1,.66.69.13a2.33,2.33,0,0,1,1.72,1,2.06,2.06,0,0,1-.06,2.26,5.35,5.35,0,0,1-1.68,1.49l-5.32,3.5Z" transform="translate(0 0)"/><path class="cls-5" d="M295.76,60.48l5.33-1.36a5.08,5.08,0,0,0,1-.32.68.68,0,0,0,.41-.82.77.77,0,0,0-.58-.56l-.09,0L295.39,59l-.67-2.6L300.14,55a4.5,4.5,0,0,0,.88-.26.75.75,0,0,0,.43-.86.82.82,0,0,0-.59-.58l-.08,0L294.34,55l-.7-2.74,9.37-2.4.69,2.71-1.25.32.65.34c1,.54,1.22.81,1.37,1.41s-.06,1.31-.9,2l-.4.34.5.15c1.13.33,1.64.76,1.83,1.52a2,2,0,0,1-1,2.15,7.9,7.9,0,0,1-2.24.81l-5.86,1.5Z" transform="translate(0 0)"/><path class="cls-5" d="M296.56,68.22l.88,0-.37-.43a2,2,0,0,1-.64-1.28,1.3,1.3,0,0,1,.34-.95,3.16,3.16,0,0,1,2.16-.82h.25c1.51,0,2.61.74,2.66,1.8a2,2,0,0,1-.27,1l-.23.46.51,0a1.38,1.38,0,0,0,1.38-1.57,2.93,2.93,0,0,0-.61-1.62l2.56-.14a4.65,4.65,0,0,1,1.41,2.88,2.85,2.85,0,0,1-2.08,3,8.23,8.23,0,0,1-1.94.29l-5.86.31Zm2.7-1.75a.93.93,0,0,0-.69.31.85.85,0,0,0-.22.62.89.89,0,0,0,.28.61l.09.09,1.35-.07.08-.1a.82.82,0,0,0,.19-.6.94.94,0,0,0-1-.86h-.07Z" transform="translate(0 0)"/><path class="cls-5" d="M303.09,78.62l.14-1.29-1.69-.19a7.39,7.39,0,0,0-.86-.06h-.2a.85.85,0,0,0-.78.69.9.9,0,0,0,.09.51l-3.22-.35a2.55,2.55,0,0,1-.54-1.85,2.36,2.36,0,0,1,2-1.94,4.28,4.28,0,0,1,1-.1,12.2,12.2,0,0,1,1.49.11l3.05.33.13-1.12,4.56,4.51-2.43-.27-.14,1.3Z" transform="translate(0 0)"/><path class="cls-5" d="M294.23,105a2.56,2.56,0,0,1-.39,0,5.27,5.27,0,0,1-2-.94l-5.33-3.48,1.56-2.4,4.8,3.13a2.26,2.26,0,0,0,1.08.51.64.64,0,0,0,.52-.33.78.78,0,0,0,.06-.79l0-.09-5.62-3.67,1.57-2.4,8.1,5.29L297,102.12l-1-.66.16.68a2.32,2.32,0,0,1-.2,2,2,2,0,0,1-1.7.87" transform="translate(0 0)"/><path class="cls-5" d="M291.38,47.77l7.83-3.62a3,3,0,0,0,.29,1.49,2.74,2.74,0,0,0,.92,1.11l-7.83,3.62Z" transform="translate(0 0)"/><path class="cls-5" d="M302.49,45.73a1.52,1.52,0,0,1-1.42-2,1.5,1.5,0,0,1,.79-.85,1.51,1.51,0,0,1,1.27,2.75,1.57,1.57,0,0,1-.64.14" transform="translate(0 0)"/><path class="cls-5" d="M295,82.94l.65-2.79,8.4,2a3,3,0,0,0-.69,1.35,2.72,2.72,0,0,0,0,1.44Z" transform="translate(0 0)"/><path class="cls-5" d="M306.55,85.7a2.09,2.09,0,0,1-.35,0,1.5,1.5,0,0,1-.94-.68,1.47,1.47,0,0,1-.18-1.14,1.5,1.5,0,0,1,1.47-1.17,1.32,1.32,0,0,1,.34,0,1.51,1.51,0,0,1-.34,3" transform="translate(0 0)"/><path class="cls-5" d="M297.62,95.69a5.58,5.58,0,0,1-2.1-.42,5,5,0,0,1-2.83-2.67,5.2,5.2,0,0,1,.07-3.93,4.84,4.84,0,0,1,4.52-3.24,5.49,5.49,0,0,1,2,.41,5.25,5.25,0,0,1,2.91,2.69,5.06,5.06,0,0,1,0,3.93,4.86,4.86,0,0,1-4.57,3.23Zm-.18-6.49a1.38,1.38,0,0,0-.49,2.64,1.54,1.54,0,0,0,.55.11,1.37,1.37,0,0,0,.47-2.64,1.48,1.48,0,0,0-.53-.11" transform="translate(0 0)"/></g></g></g></svg>