<svg xmlns="http://www.w3.org/2000/svg" width="703.28998pt" height="312.70001pt" viewBox="0 0 703.28998 312.70001"><path d="M342.61 16.57c3.69-5.33 12.67-5.04 15.89.66 15.21 24.9 30.35 49.85 45.47 74.8 1.04-5.89 0-11.83.63-17.74.56-6.65-.67-13.29-.22-19.94.67-5.33-.31-10.7.19-16.04.5-7.76-.41-15.58.43-23.31 1.18-2.74 4.27-2.37 6.71-2.29.87 1.41 2.39 2.68 2.24 4.51.04 25.03.03 50.06.02 75.09.13 4.34-3.37 8.26-7.5 9.21-4.12.94-8.66-.94-10.66-4.7-14.72-24.36-29.62-48.62-44.28-73.01-.36-.07-1.08-.21-1.45-.28-.04 24.24.02 48.49-.03 72.73.76 3.88-4.08 7.08-7.27 4.66-2.05-1.09-2.03-3.61-2.02-5.61.02-23.69.02-47.38-.01-71.06.04-2.64-.07-5.6 1.86-7.68zM450.02 19.84c2.41-6.73 11.39-9.52 17.23-5.48 3.54 2.14 4.81 6.26 5.97 9.98 7.27 21.69 14.63 43.35 21.95 65.03 1.09 3.3 2.86 6.84 1.63 10.36-1.9 2.81-6.9 2.72-8.18-.62-2.26-5.26-3.59-10.87-5.76-16.16-14.62-.06-29.25.07-43.87-.07-2.67 5.66-4.11 11.79-6.33 17.63-1.71.66-3.47 1.56-5.35 1.07-2.38-.98-4-3.8-2.82-6.28 8.44-25.17 17-50.32 25.53-75.46m7.73 6.37c-5.17 15.85-10.72 31.56-15.91 47.4 12.52.03 25.04.02 37.56 0-.78-4.64-2.59-9.01-4.07-13.45-4.23-12.36-8.39-24.75-12.55-37.13-.65-.36-1.93-1.08-2.58-1.44-.93 1.47-1.95 2.93-2.45 4.62zM582.08 16.02c1.28-1.36 2.29-3.63 4.51-3.41 3.12-.57 5.66 2.7 5.23 5.63.01 11.26-.01 22.53 0 33.8 7.54.74 15.09-.27 22.63.37 8.93-.2 17.85 0 26.78-.32-.07-11.3-.1-22.59-.01-33.88-.15-2.23 1.4-3.94 2.61-5.61 1.99.2 4.48-.4 5.82 1.54 1.49 1.29 1.24 3.36 1.3 5.13-.07 25.98.04 51.95-.05 77.92.19 2.16-1.9 3.35-3.15 4.76-2.86-.1-6.27-1.18-6.33-4.6-.62-11.82.02-23.71-.3-35.55-16.42-.02-32.84-.03-49.25.01-.14 11.48.02 22.97-.05 34.46.1 1.88-.66 3.96-2.41 4.86-1.97 1.32-4.26.02-6.22-.58-.45-1.75-.99-3.5-1.02-5.31-.09-26.41.13-52.81-.09-79.22zM525.33 16c4.1-3.25 9.76-3.97 14.72-2.61 3.41.94 6.11 3.35 8.89 5.43 5.83 4.38 11.64 8.79 17.37 13.29-.1 2.2-.22 4.39-.37 6.59-2.39.11-5.16 1.14-7.22-.56-5.94-4.45-11.86-8.94-17.72-13.5-1.62-1.34-3.6-2.1-5.53-2.85-2.01.71-4.07 1.37-5.73 2.73-4.75 3.61-9.46 7.27-14.27 10.79 2.71 3.05 6.22 5.18 9.4 7.69 13.82 10.58 27.74 21.01 41.56 31.58 2.82 1.78 2.4 6.59-.48 8.16-6.79 5.2-13.62 10.35-20.43 15.53-5.68 4.57-14.39 4.63-20.17.23-7.1-5.7-14.86-10.59-21.48-16.85-.02-.92-.05-2.77-.07-3.7 1.09-1.07 2.06-2.42 3.57-2.95 2.36-.55 4.2 1.27 6 2.47 5.65 4.31 11.28 8.66 16.96 12.94 3.55 3.09 8.77 1.68 11.8-1.43 4.08-3.32 8.45-6.26 12.49-9.62 1.14-.63.14-1.99-.64-2.38-17.05-12.88-34.06-25.8-51.04-38.75.05-2.07-.79-4.81 1.34-6.14 6.89-5.51 14.04-10.71 21.05-16.09zM672.01 14.12c2.9-2.31 8.25-2.1 8.86 2.26.22 26.96.08 53.94.06 80.9.11 4.55-6.57 5.99-8.85 2.26-.8-5.36-.16-10.82-.35-16.22.18-23.06-.36-46.15.28-69.2zM444.79 154.81c1.79-5.61 8.28-9.1 13.93-7.43 3.76 1.02 6.86 3.98 8.13 7.65 7.28 21.68 14.66 43.34 21.92 65.02 1.37 4.39 3.54 8.65 3.48 13.36-.44.57-1.31 1.72-1.74 2.3-1.81.18-3.7.66-5.45-.02-1.43-1.21-1.96-3.1-2.63-4.77-1.45-4.32-3-8.62-4.04-13.06-14.99-.47-30.01-.24-45-.11-1.53 5-3.2 9.96-4.89 14.9-.67 2.18-2.67 3.87-5.05 3.46-3.24.28-5.3-3.7-3.96-6.44 8.48-24.93 16.79-49.93 25.3-74.86m9.42 1.93c-6.06 16.98-11.5 34.17-17.42 51.21 12.58.17 25.16.12 37.74.02-5.29-17.15-11.51-33.99-16.99-51.08-1.12-.06-2.23-.11-3.33-.15zM503.9 149.91c1.06-1.01 2.12-2.03 3.17-3.06 13.14.1 26.27-.03 39.41.05 6.6-.11 12.89 4.93 14.36 11.33.59 5.67.16 11.4.29 17.09.29 5.1-2.68 10.12-7.11 12.58-6.46 3.63-13.38 6.48-19.7 10.34-1.97 1.1-1.16 3.51.43 4.51 9.58 8.49 19.4 16.7 29.05 25.11 1.94 1.48 1.6 4.37.9 6.42-1.82 2.24-5.52 2.4-7.55.41-9.85-8.53-19.73-17.03-29.56-25.56-5.72-4.98-4.85-15.23 1.71-19.07 5.98-3.36 12.22-6.25 18.3-9.44 1.74-.83 3.03-2.31 4.29-3.73-.12-5.15.13-10.31-.07-15.45.04-2-1.7-3.33-2.78-4.78-11.96-.27-23.93-.26-35.88-.01.01 25.75.1 51.51-.05 77.26-2.4 3.08-8.72 3.02-9.08-1.58-.23-27.47.03-54.95-.13-82.42zM584.61 147.09l3.19-.28c1.29 1.3 3.46 2.28 3.14 4.46.17 26-.01 52.02.09 78.02-.16 1.82.36 4.03-1.19 5.4-2.2 2.48-6.04 1.33-8.02-.83-.02-28.23-.28-56.47.15-84.69.87-.7 1.75-1.39 2.64-2.08z"/><g fill="#da0583"><path d="M319 .08C447.01-.02 575.03.15 703.04 0c.45 28.76-.05 57.54.25 86.31-.19 8.85-.02 17.71-.09 26.57-128.07-.06-256.14.01-384.22-.04.02-37.59-.02-75.17.02-112.76m23.61 16.49c-1.93 2.08-1.82 5.04-1.86 7.68.03 23.68.03 47.37.01 71.06-.01 2-.03 4.52 2.02 5.61 3.19 2.42 8.03-.78 7.27-4.66.05-24.24-.01-48.49.03-72.73.37.07 1.09.21 1.45.28 14.66 24.39 29.56 48.65 44.28 73.01 2 3.76 6.54 5.64 10.66 4.7 4.13-.95 7.63-4.87 7.5-9.21.01-25.03.02-50.06-.02-75.09.15-1.83-1.37-3.1-2.24-4.51-2.44-.08-5.53-.45-6.71 2.29-.84 7.73.07 15.55-.43 23.31-.5 5.34.48 10.71-.19 16.04-.45 6.65.78 13.29.22 19.94-.63 5.91.41 11.85-.63 17.74-15.12-24.95-30.26-49.9-45.47-74.8-3.22-5.7-12.2-5.99-15.89-.66m107.41 3.27c-8.53 25.14-17.09 50.29-25.53 75.46-1.18 2.48.44 5.3 2.82 6.28 1.88.49 3.64-.41 5.35-1.07 2.22-5.84 3.66-11.97 6.33-17.63 14.62.14 29.25.01 43.87.07 2.17 5.29 3.5 10.9 5.76 16.16 1.28 3.34 6.28 3.43 8.18.62 1.23-3.52-.54-7.06-1.63-10.36-7.32-21.68-14.68-43.34-21.95-65.03-1.16-3.72-2.43-7.84-5.97-9.98-5.84-4.04-14.82-1.25-17.23 5.48m132.06-3.82c.22 26.41 0 52.81.09 79.22.03 1.81.57 3.56 1.02 5.31 1.96.6 4.25 1.9 6.22.58 1.75-.9 2.51-2.98 2.41-4.86.07-11.49-.09-22.98.05-34.46 16.41-.04 32.83-.03 49.25-.01.32 11.84-.32 23.73.3 35.55.06 3.42 3.47 4.5 6.33 4.6 1.25-1.41 3.34-2.6 3.15-4.76.09-25.97-.02-51.94.05-77.92-.06-1.77.19-3.84-1.3-5.13-1.34-1.94-3.83-1.34-5.82-1.54-1.21 1.67-2.76 3.38-2.61 5.61-.09 11.29-.06 22.58.01 33.88-8.93.32-17.85.12-26.78.32-7.54-.64-15.09.37-22.63-.37-.01-11.27.01-22.54 0-33.8.43-2.93-2.11-6.2-5.23-5.63-2.22-.22-3.23 2.05-4.51 3.41M525.33 16c-7.01 5.38-14.16 10.58-21.05 16.09-2.13 1.33-1.29 4.07-1.34 6.14 16.98 12.95 33.99 25.87 51.04 38.75.78.39 1.78 1.75.64 2.38-4.04 3.36-8.41 6.3-12.49 9.62-3.03 3.11-8.25 4.52-11.8 1.43-5.68-4.28-11.31-8.63-16.96-12.94-1.8-1.2-3.64-3.02-6-2.47-1.51.53-2.48 1.88-3.57 2.95.02.93.05 2.78.07 3.7 6.62 6.26 14.38 11.15 21.48 16.85 5.78 4.4 14.49 4.34 20.17-.23 6.81-5.18 13.64-10.33 20.43-15.53 2.88-1.57 3.3-6.38.48-8.16-13.82-10.57-27.74-21-41.56-31.58-3.18-2.51-6.69-4.64-9.4-7.69 4.81-3.52 9.52-7.18 14.27-10.79 1.66-1.36 3.72-2.02 5.73-2.73 1.93.75 3.91 1.51 5.53 2.85 5.86 4.56 11.78 9.05 17.72 13.5 2.06 1.7 4.83.67 7.22.56.15-2.2.27-4.39.37-6.59-5.73-4.5-11.54-8.91-17.37-13.29-2.78-2.08-5.48-4.49-8.89-5.43-4.96-1.36-10.62-.64-14.72 2.61m146.68-1.88c-.64 23.05-.1 46.14-.28 69.2.19 5.4-.45 10.86.35 16.22 2.28 3.73 8.96 2.29 8.85-2.26.02-26.96.16-53.94-.06-80.9-.61-4.36-5.96-4.57-8.86-2.26z"/><path d="M457.75 26.21c.5-1.69 1.52-3.15 2.45-4.62.65.36 1.93 1.08 2.58 1.44 4.16 12.38 8.32 24.77 12.55 37.13 1.48 4.44 3.29 8.81 4.07 13.45-12.52.02-25.04.03-37.56 0 5.19-15.84 10.74-31.55 15.91-47.4zM141.61 56.4c4.01-3.99 8.03-7.96 12.02-11.97 4.2 4.27 8.77 8.23 12.65 12.8-3.76 4.18-7.98 7.93-11.88 11.98-4.27-4.26-8.61-8.46-12.79-12.81zM407.78 135.61c3.21-.33 6.44-.68 9.69-.5 11.66.98 23.36-.23 35.05.31 6.63-.72 13.28-.12 19.93.12 14.34-.36 28.68-.53 43.01-.04 6.02-.67 12.04.08 18.07.03 13.62-.78 27.26.32 40.88-.48 13.49.52 26.97-.03 40.47.53.01 37.44-.07 74.88.03 112.32-69.05.22-138.1.04-207.15.09.04-37.46 0-74.92.02-112.38m37.01 19.2c-8.51 24.93-16.82 49.93-25.3 74.86-1.34 2.74.72 6.72 3.96 6.44 2.38.41 4.38-1.28 5.05-3.46 1.69-4.94 3.36-9.9 4.89-14.9 14.99-.13 30.01-.36 45 .11 1.04 4.44 2.59 8.74 4.04 13.06.67 1.67 1.2 3.56 2.63 4.77 1.75.68 3.64.2 5.45.02.43-.58 1.3-1.73 1.74-2.3.06-4.71-2.11-8.97-3.48-13.36-7.26-21.68-14.64-43.34-21.92-65.02-1.27-3.67-4.37-6.63-8.13-7.65-5.65-1.67-12.14 1.82-13.93 7.43m59.11-4.9c.16 27.47-.1 54.95.13 82.42.36 4.6 6.68 4.66 9.08 1.58.15-25.75.06-51.51.05-77.26 11.95-.25 23.92-.26 35.88.01 1.08 1.45 2.82 2.78 2.78 4.78.2 5.14-.05 10.3.07 15.45-1.26 1.42-2.55 2.9-4.29 3.73-6.08 3.19-12.32 6.08-18.3 9.44-6.56 3.84-7.43 14.09-1.71 19.07 9.83 8.53 19.71 17.03 29.56 25.56 2.03 1.99 5.73 1.83 7.55-.41.7-2.05 1.04-4.94-.9-6.42-9.65-8.41-19.47-16.62-29.05-25.11-1.59-1-2.4-3.41-.43-4.51 6.32-3.86 13.24-6.71 19.7-10.34 4.43-2.46 7.4-7.48 7.11-12.58-.13-5.69.3-11.42-.29-17.09-1.47-6.4-7.76-11.44-14.36-11.33-13.14-.08-26.27.05-39.41-.05-1.05 1.03-2.11 2.05-3.17 3.06m80.71-2.82c-.89.69-1.77 1.38-2.64 2.08-.43 28.22-.17 56.46-.15 84.69 1.98 2.16 5.82 3.31 8.02.83 1.55-1.37 1.03-3.58 1.19-5.4-.1-26 .08-52.02-.09-78.02.32-2.18-1.85-3.16-3.14-4.46l-3.19.28z"/><path d="M454.21 156.74c1.1.04 2.21.09 3.33.15 5.48 17.09 11.7 33.93 16.99 51.08-12.58.1-25.16.15-37.74-.02 5.92-17.04 11.36-34.23 17.42-51.21zM230.3 191.63c4.06-4.02 8.09-8.06 12.15-12.08 4.27 4.25 8.55 8.49 12.81 12.75-4.22 3.84-7.77 8.58-12.44 11.83-4.37-3.97-8.46-8.23-12.52-12.5z"/></g><g fill="#fbfbfb"><path d="M185.85 2.93c3.66-.79 7.75-.79 11.09 1.1 2.45 1.39 4.42 3.43 6.39 5.42 9.8 9.9 19.74 19.66 29.51 29.58 3.15 2.64.45 8.29-3.6 7.49-2.32-1.13-3.95-3.18-5.76-4.94-9.49-9.54-19.03-19.03-28.53-28.56-2.25-2.61-6.67-3.11-9.11-.49-8.8 8.57-17.34 17.42-26.15 25.98 4.88 4.95 9.84 9.82 14.74 14.75 1.17 1.13 1.83 2.64 2.57 4.07-4.33 6.87-11.8 11.45-16.33 17.94 7.47 7.8 15.28 15.28 22.84 23 1.9 1.87 3.91 4.4 6.94 3.89 1.83.2 3.29-1.04 4.51-2.23 11.49-11.46 22.9-23.01 34.47-34.4-12.34 0-24.69.1-37.02-.04-4.61-.11-5.25-7.35-.8-8.41 12.27-.39 24.58-.05 36.87-.17 5.4-.47 10.44 4.93 9.22 10.28-.64 3.05-3.18 5-5.23 7.11-10.87 10.82-21.68 21.69-32.54 32.51-5.25 5.21-14.6 5.09-19.82-.11-8.62-8.43-16.98-17.15-25.67-25.51-8.9 8.1-17.01 17.08-25.77 25.35-6.11 5.34-16.14 5.13-21.92-.61-15.21-15.09-30.31-30.29-45.47-45.42-2.07-1.57-2.34-4.91-.28-6.58 15.19-15.2 30.36-30.41 45.58-45.57 6.08-5.97 16.69-6 22.81-.08 8.16 8.04 16.22 16.18 24.31 24.29 7.49-7.19 14.71-14.65 22.09-21.96 3.01-2.93 5.83-6.51 10.06-7.68M112 14.81c-14.12 14.1-28.22 28.2-42.32 42.32 13.87 13.76 27.66 27.61 41.46 41.44 1.47 1.41 3.09 2.9 5.19 3.22 3.2.89 6.42-.87 8.56-3.15 7.84-7.87 15.69-15.72 23.55-23.57-5.13-5.19-10.36-10.27-15.44-15.51-1.77-1.45-1.87-4.3-.21-5.87 4.55-4.83 9.44-9.34 14.04-14.14 1.41-.96-.26-2.1-.91-2.85-7.35-7.28-14.62-14.63-21.96-21.92-3.07-3.31-8.86-3.18-11.96.03m29.61 41.59c4.18 4.35 8.52 8.55 12.79 12.81 3.9-4.05 8.12-7.8 11.88-11.98-3.88-4.57-8.45-8.53-12.65-12.8-3.99 4.01-8.01 7.98-12.02 11.97zM0 17.28c.98-1.83 2-4.31 4.47-4.31 20.66-.18 41.33.01 61.99-.08 1.83-.14 3.57.47 5.29 1 1.03 2.22 1.05 4.52-.05 6.71-1.72.49-3.44 1.05-5.24.96-8.58-.02-17.15 0-25.73-.02.07 24.92.02 49.84.03 74.75.41 2.08-1.08 3.51-2.29 4.94-3.15.53-6.45-1.35-6.15-4.87-.04-24.95-.03-49.9 0-74.85-9.3.02-18.61.13-27.91-.04-2.43-.01-3.37-2.44-4.41-4.19zM256.53 15.3c5.39-3.29 11.94-1.9 17.91-2.19 10.03.26 20.12-.57 30.12.51 2.45 2.51 2.1 7.58-1.99 8.03-13 .23-26.02-.02-39.02.11-3.31-.07-5.83 3.38-5.54 6.53-.07 8.38-.02 16.76.03 25.13 4.13.02 8.27-.01 12.41.01 6.34-.03 12.68.06 19.02-.06 2.31.21 5.58-.64 6.86 1.94 1.85 2.64-.71 6.73-3.86 6.43-11.5.07-22.99.02-34.49.02.07 8.18-.01 16.37.03 24.55-.31 3.13 2.15 6.71 5.51 6.59 13.05.15 26.12-.12 39.17.11 4.68.53 4.57 8.17-.16 8.47-12.7.22-25.42.04-38.12.09-7.7.22-14.8-6.48-14.73-14.23-.05-19.7 0-39.39-.03-59.09-.26-5.18 2.56-10.18 6.88-12.95zM201.61 139.83c5.89-2.22 12.72-.13 17.07 4.21 7.95 7.91 15.88 15.85 23.8 23.79 8.6-8.57 17.17-17.18 25.77-25.76 3.85-3.95 10.03-5.82 15.28-3.71 3.75 1.11 6.3 4.21 8.97 6.86 9.78 9.88 19.75 19.59 29.44 29.55 2.95 2.77-.66 8.11-4.32 6.84-2.97-1.8-5.1-4.61-7.6-6.96-9.01-8.96-17.93-18.01-26.98-26.93-2.41-2.6-6.58-2.29-8.87.3-8.59 8.58-17.26 17.1-25.73 25.81 4.61 4.51 9.12 9.12 13.72 13.64 1.34 1.36 2.93 2.75 3.19 4.78-.12 2.1-1.82 3.45-3.15 4.85-4.44 4.36-8.79 8.8-13.22 13.17 8.5 8.36 16.87 16.84 25.33 25.23 2.39 2.68 6.88 2.61 9.18-.15 11.55-11.61 23.2-23.11 34.69-34.77-12.67-.07-25.35.2-38.01-.13-3.4-.87-3.67-4.92-1.86-7.41 1.99-.63 4.05-1.05 6.16-.94 11.4.12 22.82-.13 34.22.11 6.67.35 10.46 9.26 5.66 14.09-10.74 10.89-21.64 21.63-32.42 32.49-3.24 3.53-7.28 7.2-12.41 7.03-3.93.37-7.88-1.17-10.68-3.92-8.66-8.51-17.08-17.27-25.84-25.68-8.24 8.31-16.52 16.59-24.82 24.83-6.02 6.02-16.49 6.08-22.62.23-15.37-15.31-30.74-30.65-46.03-46.04-2.07-1.71-1.44-4.78.44-6.37 13.51-13.55 27.07-27.06 40.59-40.61 3.29-3.25 6.42-7.1 11.05-8.43m-1.16 10.45c-14.03 13.99-28.02 28.01-42.03 42.02 14 14.01 28 28.01 42.01 42.01 3 3.59 9.13 3.77 12.33.34 8.19-8.07 16.26-16.28 24.43-24.38-5.32-5.49-10.99-10.67-16.12-16.33-1.82-1.86-.4-4.36 1.13-5.82 4.75-4.78 9.52-9.54 14.32-14.27-7.76-8.1-15.79-15.95-23.75-23.86-3.19-3.44-9.28-3.28-12.32.29m29.85 41.35c4.06 4.27 8.15 8.53 12.52 12.5 4.67-3.25 8.22-7.99 12.44-11.83-4.26-4.26-8.54-8.5-12.81-12.75-4.06 4.02-8.09 8.06-12.15 12.08zM89.75 149.47c.95-2.32 3.68-2.05 5.74-2.04 21.07.13 42.15-.17 63.21.14 3.74 1.24 3.32 6.69-.02 8.23-9.69-.09-19.38.02-29.07-.05.1 24.5 0 49 .05 73.51.06 1.79-.45 3.53-.95 5.24-2.86 2.21-7.62.84-7.63-3.14-.05-25.2-.03-50.41-.01-75.61-9.21.02-18.42.05-27.62 0-3.05.26-5.61-3.73-3.7-6.28zM340.93 153.75c2.74-4.06 7.65-6.46 12.53-6.26 12.36.04 24.72-.04 37.08.04 3.26-.34 5.76 3.85 3.75 6.53-.74 1.39-2.33 1.89-3.81 1.79-12.68.11-25.36-.07-38.03.07-3.26.03-5.79 3.14-5.6 6.32-.09 8.43.05 16.86-.05 25.3 11.26-.03 22.52-.02 33.78-.02 2.42-.3 4.81 1.5 5.16 3.93.11 2.28-1.83 4.71-4.27 4.39-11.54.07-23.09 0-34.63.02.04 8.71-.13 17.43.07 26.14.09 3.29 3.36 5.63 6.5 5.44 12.94.14 25.9-.2 38.83.15 3.85 1.24 3.4 7.29-.49 8.1-13.09.2-26.2.03-39.29.08-7.64.11-14.15-6.82-14.14-14.36-.1-19.02.03-38.04-.05-57.07-.01-3.65.41-7.58 2.66-10.59zM239.91 278.64c1.6.02 3.22.05 4.84.08-1.73 3.3-3.04 6.82-5.01 9.99-.77.06-2.32.17-3.09.23.94-3.48 2.1-6.89 3.26-10.3zM249.29 278.69c1.66 0 3.33.01 5.01.05-2.26 3.28-4.13 6.84-6.63 9.95-.78.07-2.35.19-3.13.25 1.44-3.48 3.12-6.85 4.75-10.25zM428.3 278.72c1.65-.02 3.31-.03 4.98-.03-1.67 3.33-3.29 6.68-4.8 10.08-1.18.02-2.34.04-3.5.07 1.2-3.34 2.25-6.74 3.32-10.12zM437.82 278.79c1.65-.18 3.32-.11 5-.12-2.16 3.35-4.38 6.66-6.45 10.07l-3.46.12c1.71-3.32 3.07-6.82 4.91-10.07zM179.46 283.57c4.12-.12 8.24-.09 12.37-.01-3 5.81-5.82 11.71-8.75 17.56 6.28-.06 12.57-.15 18.85-.01.27.65.8 1.94 1.06 2.59-7.08.18-14.17.02-21.25.09-1.46 2.81-2.62 5.78-4.28 8.48-.67.11-2.01.32-2.67.43 1.22-9.76 3.34-19.38 4.67-29.13zM278.46 283.64c4.11-.22 8.23-.16 12.36-.12-1.49 3.14-3.02 6.26-4.62 9.35 4.26 0 8.51.01 12.77.01.01.71.02 2.13.02 2.84-4.74 0-9.48 0-14.22.01-2.75 5.53-5.25 11.21-8.3 16.58l-2.73.36c1.01-5.63 1.87-11.29 2.74-16.94-2.93-.01-5.87-.01-8.79-.01.01-.71.02-2.13.03-2.85 3.08.01 6.17 0 9.26.03.6-3.07 1.14-6.16 1.48-9.26zM311.61 283.53c5.12-.05 10.26-.04 15.39-.01-.02 1.69-.03 3.39-.03 5.1-4.15-.01-8.29.05-12.43-.08-.97-1.68-1.95-3.34-2.93-5.01zM367.99 283.53c4.1-.07 8.2-.09 12.29.11-2.97 5.77-5.73 11.64-8.74 17.4 6.46.03 12.92.01 19.38.01.04.89.09 1.81.15 2.72-6.95.01-13.88.01-20.82 0-1.43 2.93-2.87 5.86-4.39 8.75-.48 0-1.44 0-1.92.01-.19-.15-.59-.44-.79-.59 1.84-9.43 3.27-18.93 4.84-28.41z"/><path d="M403.91 283.67c3.6-.1 7.21-.09 10.83-.04.28 2.47.5 4.96.63 7.46 8.56 0 17.11.02 25.67-.01.07.89.15 1.78.24 2.68-2.89.02-5.78.01-8.66.08-4.06 6.18-8.06 12.42-12.34 18.44l-2.7.4c1.88-6.33 4.06-12.56 5.88-18.9-2.56-.01-5.12 0-7.67-.01.11 3.12.36 6.24.92 9.32-.76-.02-2.3-.05-3.07-.07-3.13-6.51-6.46-12.92-9.73-19.35zM452.9 283.5c11.32.05 22.63-.07 33.94.03-3.69 5.82-7.3 11.68-11.08 17.44-.91-.02-2.72-.08-3.62-.11.79-4.91 1.29-9.86 2.13-14.76-7.13.02-14.25.02-21.38-.01.01-.65.01-1.94.01-2.59zM521.28 283.61c4.1-.01 8.2-.05 12.3.04-5.54 9.66-11.23 19.23-16.81 28.87-.99-.02-2.97-.05-3.96-.06 2.92-9.59 5.67-19.23 8.47-28.85zM215.42 283.63c3.58-.05 7.17-.04 10.76-.04.3 2.5.53 5.01.75 7.52 8.56-.03 17.12-.02 25.68-.02.02.68.05 2.02.07 2.69-2.83 0-5.64.01-8.46 0-4.16 6.26-8.29 12.54-12.53 18.74-.9-.03-1.79-.04-2.68-.05 2.23-6.16 3.93-12.5 6.12-18.67-2.67-.02-5.32-.02-7.97-.01.46 3.08.74 6.18.88 9.3-.69.01-2.07.04-2.77.05-3.26-6.52-6.56-13.01-9.85-19.51zM342.14 284.78c.9.02 1.81.04 2.73.07-5.4 9.27-10.82 18.52-16.24 27.78-1.71-2.9-3.42-5.8-5.07-8.74 6.33-6.23 12.36-12.76 18.58-19.11zM502.28 283.61c1.73-.01 3.46 0 5.2.03-.8 4.71-1.63 9.42-2.4 14.13-.7 0-2.11-.01-2.81-.01.02-4.72.02-9.44.01-14.15zM316.48 291.72c3.5-.06 7.01-.04 10.52-.03l-.04 2.78c-2.98-.01-5.94-.01-8.91.02l-1.57-2.77z"/><path d="M463.95 296.13c1.71-.01 3.43-.01 5.16 0-1.08 5.36-1.27 10.88-2.65 16.18-.63.09-1.89.28-2.52.37-.05-5.52-.03-11.04.01-16.55z"/></g></svg>