<svg viewBox="0 0 29 29" xmlns="http://www.w3.org/2000/svg"><rect width="29" height="29" fill="#fff"/><path fill="#000" transform="translate(2,2)" d="M0 0h7v1h-7zM8 0h2v1h-2zM11 0h2v1h-2zM14 0h1v1h-1zM16 0h1v1h-1zM18 0h7v1h-7zM0 1h1v1h-1zM6 1h1v1h-1zM10 1h5v1h-5zM18 1h1v1h-1zM24 1h1v1h-1zM0 2h1v1h-1zM2 2h3v1h-3zM6 2h1v1h-1zM8 2h4v1h-4zM13 2h1v1h-1zM15 2h2v1h-2zM18 2h1v1h-1zM20 2h3v1h-3zM24 2h1v1h-1zM0 3h1v1h-1zM2 3h3v1h-3zM6 3h1v1h-1zM10 3h1v1h-1zM13 3h3v1h-3zM18 3h1v1h-1zM20 3h3v1h-3zM24 3h1v1h-1zM0 4h1v1h-1zM2 4h3v1h-3zM6 4h1v1h-1zM10 4h1v1h-1zM13 4h1v1h-1zM18 4h1v1h-1zM20 4h3v1h-3zM24 4h1v1h-1zM0 5h1v1h-1zM6 5h1v1h-1zM8 5h2v1h-2zM13 5h1v1h-1zM16 5h1v1h-1zM18 5h1v1h-1zM24 5h1v1h-1zM0 6h7v1h-7zM8 6h1v1h-1zM10 6h1v1h-1zM12 6h1v1h-1zM14 6h1v1h-1zM16 6h1v1h-1zM18 6h7v1h-7zM9 7h2v1h-2zM14 7h2v1h-2zM0 8h1v1h-1zM2 8h1v1h-1zM6 8h2v1h-2zM10 8h2v1h-2zM15 8h2v1h-2zM19 8h1v1h-1zM22 8h1v1h-1zM24 8h1v1h-1zM0 9h1v1h-1zM2 9h1v1h-1zM7 9h3v1h-3zM11 9h1v1h-1zM13 9h1v1h-1zM15 9h2v1h-2zM18 9h2v1h-2zM21 9h1v1h-1zM23 9h2v1h-2zM0 10h1v1h-1zM3 10h1v1h-1zM5 10h2v1h-2zM8 10h5v1h-5zM15 10h3v1h-3zM21 10h2v1h-2zM24 10h1v1h-1zM2 11h1v1h-1zM5 11h1v1h-1zM7 11h2v1h-2zM11 11h1v1h-1zM15 11h2v1h-2zM21 11h1v1h-1zM1 12h1v1h-1zM3 12h2v1h-2zM6 12h1v1h-1zM8 12h1v1h-1zM10 12h2v1h-2zM16 12h1v1h-1zM18 12h2v1h-2zM24 12h1v1h-1zM2 13h1v1h-1zM7 13h1v1h-1zM14 13h2v1h-2zM18 13h2v1h-2zM23 13h2v1h-2zM0 14h3v1h-3zM6 14h1v1h-1zM9 14h1v1h-1zM11 14h1v1h-1zM14 14h2v1h-2zM17 14h1v1h-1zM21 14h2v1h-2zM24 14h1v1h-1zM3 15h1v1h-1zM5 15h1v1h-1zM8 15h1v1h-1zM10 15h1v1h-1zM14 15h1v1h-1zM17 15h1v1h-1zM19 15h3v1h-3zM0 16h3v1h-3zM4 16h4v1h-4zM9 16h4v1h-4zM14 16h1v1h-1zM16 16h5v1h-5zM23 16h1v1h-1zM8 17h1v1h-1zM10 17h1v1h-1zM12 17h2v1h-2zM16 17h1v1h-1zM20 17h1v1h-1zM24 17h1v1h-1zM0 18h7v1h-7zM8 18h1v1h-1zM12 18h1v1h-1zM16 18h1v1h-1zM18 18h1v1h-1zM20 18h1v1h-1zM24 18h1v1h-1zM0 19h1v1h-1zM6 19h1v1h-1zM11 19h2v1h-2zM14 19h3v1h-3zM20 19h1v1h-1zM24 19h1v1h-1zM0 20h1v1h-1zM2 20h3v1h-3zM6 20h1v1h-1zM10 20h1v1h-1zM13 20h8v1h-8zM24 20h1v1h-1zM0 21h1v1h-1zM2 21h3v1h-3zM6 21h1v1h-1zM10 21h1v1h-1zM13 21h1v1h-1zM15 21h3v1h-3zM20 21h1v1h-1zM22 21h2v1h-2zM0 22h1v1h-1zM2 22h3v1h-3zM6 22h1v1h-1zM8 22h1v1h-1zM11 22h1v1h-1zM15 22h1v1h-1zM17 22h1v1h-1zM19 22h3v1h-3zM23 22h2v1h-2zM0 23h1v1h-1zM6 23h1v1h-1zM9 23h1v1h-1zM13 23h1v1h-1zM16 23h1v1h-1zM19 23h2v1h-2zM0 24h7v1h-7zM8 24h6v1h-6zM16 24h1v1h-1zM18 24h1v1h-1zM21 24h1v1h-1zM24 24h1v1h-1z"/></svg>